<?xml version="1.0" encoding="UTF-8"?>
<svg version="1.1" xmlns="http://www.w3.org/2000/svg" width="285" height="156">
<path d="M0 0 C8.98136037 6.44674333 10.95113939 14.15055706 12.875 24.5 C16.11460774 39.97998132 24.67471461 52.62357869 37.90625 61.28125 C52.25919929 69.365095 68.67784014 71.79034677 84.75 68.09375 C99.60454845 63.60643849 111.78207939 54.98188844 119.35546875 41.31640625 C122.55195102 35.01195969 124.63664911 29.02431637 126.01855469 22.09619141 C127.90424739 12.66199048 129.87944016 6.64933562 137.5625 0.4375 C144.63045067 -3.31284117 150.86698807 -3.89783981 158.625 -2.1875 C165.50739827 0.66242781 170.7505309 5.97835866 174 12.625 C175.610673 20.8394323 175.04893381 27.58244636 170.625 34.8125 C168.125 37.6875 168.125 37.6875 165.625 39.8125 C165.00625 40.369375 164.3875 40.92625 163.75 41.5 C158.43301817 44.78401819 152.58407076 45.05051231 146.5 45.1875 C138.71891077 45.51590886 131.9115089 46.94471738 124.625 49.8125 C123.75488281 50.15023437 122.88476562 50.48796875 121.98828125 50.8359375 C108.90224053 56.62912978 100.10580046 67.68618775 94.375 80.5 C92.71402325 84.88021295 91.95234416 89.33522985 91.1875 93.9375 C89.64350221 103.05067276 86.65581411 108.86917469 79.3671875 114.625 C73.99083521 118.28959887 67.92841681 118.58144091 61.625 117.8125 C50.99397514 114.70057026 46.34757989 107.29112875 41.10546875 98.16796875 C33.30121902 85.09996277 22.50893629 77.14197418 7.921875 72.6796875 C-8.59497423 68.84418486 -23.82794707 71.41377353 -38.3125 80.1875 C-48.0295195 86.81726733 -53.96314007 95.1453254 -59.3125 105.5625 C-62.58811772 110.72407944 -66.77565818 114.51282909 -72.25 117.25 C-80.31608652 118.70189557 -87.40489814 118.4926043 -94.375 113.8125 C-100.78108386 108.10105174 -103.88891518 103.0622161 -104.6875 94.4375 C-104.03919182 86.91712511 -101.74022465 81.05531056 -96.5078125 75.52734375 C-92.58957927 72.37696941 -88.15673451 71.15929344 -83.375 69.8125 C-65.70842033 64.78332769 -52.8908309 57.56178445 -43.3203125 41.46484375 C-39.30577105 34.25127427 -37.57724802 26.61052834 -36.4375 18.5 C-35.35796939 11.3844852 -32.59810653 7.08613168 -27.625 2 C-19.13287958 -3.71585028 -9.19227206 -5.34917526 0 0 Z " fill="#FFFFFF" transform="translate(110.375,3.1875)"/>
</svg>
